<svg width="28" height="28" viewBox="0 0 28 28" fill="none" xmlns="http://www.w3.org/2000/svg">
<circle cx="14" cy="14" r="14" fill="#F94B4B"/>
<path d="M16.2352 4.27563L16.2367 4.27561C16.8919 4.27133 17.5585 4.27996 18.2269 4.33256L18.234 4.33312L18.241 4.33387C18.2559 4.33547 18.2755 4.33701 18.299 4.33885C18.4086 4.34746 18.6018 4.36264 18.7838 4.42087C18.9383 4.43602 19.0894 4.45767 19.2317 4.47961L19.2534 4.48296L19.266 4.48606C19.2669 4.48617 19.268 4.4863 19.2693 4.48644L19.2953 4.48909C19.3066 4.49023 19.3225 4.49189 19.3399 4.49418C19.386 4.50023 19.4685 4.51316 19.5605 4.55451C19.7945 4.60548 20.0319 4.66531 20.2664 4.73677L20.2752 4.73945L20.2752 4.73954C20.2847 4.7426 20.2948 4.74585 20.3056 4.7493C20.4198 4.78589 20.6047 4.84508 20.7703 4.95101L20.7912 4.96433L20.8106 4.97963C20.9432 5.08418 21.0866 5.20399 21.2226 5.31764C21.3141 5.39404 21.4022 5.46766 21.4814 5.53198L21.5172 5.561C21.8339 5.38716 22.1917 5.36398 22.4747 5.39776L22.4759 5.3979C23.0303 5.46544 23.5289 5.72828 23.9167 6.06943L23.9184 6.07089C24.2405 6.3568 24.5589 6.76081 24.6643 7.27218C24.751 7.65625 24.6692 8.1502 24.296 8.46853C24.1384 8.60622 23.9601 8.68121 23.7919 8.72138C23.8367 8.86965 23.8693 9.02797 23.8804 9.19404C23.9107 9.58933 23.8053 10.0289 23.5098 10.3664C23.2398 10.6808 22.8633 10.8327 22.5167 10.8801C22.5101 10.8901 22.5033 10.9006 22.496 10.9118C22.4783 10.9388 22.4582 10.9696 22.4342 11.0055C22.3822 11.0887 22.3334 11.1647 22.2866 11.2376C22.2172 11.3457 22.1521 11.447 22.0876 11.5548C22.0872 11.5654 22.0867 11.578 22.0858 11.592C22.067 12.0746 21.7918 12.5324 21.3636 12.7705C21.2684 12.8259 21.1673 12.8649 21.0807 12.8928C20.8729 13.1965 20.6672 13.502 20.4602 13.8094L20.4015 13.8966C18.5044 16.7273 16.6137 19.5637 14.7337 22.4061L14.7327 22.4076C14.5385 22.6989 14.3387 23.0037 14.1376 23.3104C13.9022 23.6695 13.665 24.0312 13.4332 24.377L13.4275 24.3854L13.4274 24.3854C13.4074 24.4138 13.3861 24.4452 13.3632 24.4787C13.2335 24.6691 13.0562 24.9292 12.8202 25.1294C12.539 25.3791 12.1876 25.428 11.9347 25.4244C11.419 25.4382 10.8939 25.1904 10.5945 24.7427C10.272 24.2722 10.2526 23.6442 10.5178 23.1555L10.5239 23.1442L10.5306 23.1333C10.6755 22.8961 10.8328 22.6588 10.9839 22.4309C11.0511 22.3294 11.1171 22.2299 11.1802 22.133L11.1821 22.1301C12.1268 20.7015 13.0773 19.274 14.0273 17.8473C14.7329 16.7876 15.4382 15.7283 16.1407 14.6692C16.3352 14.3751 16.5298 14.0818 16.7242 13.7888C17.2667 12.971 17.8074 12.1559 18.3396 11.3345C18.3199 11.2116 18.3147 11.0788 18.3346 10.9412C18.3755 10.6354 18.5363 10.3949 18.6944 10.2267C18.7718 10.1254 18.8443 10.0258 18.9106 9.92633C18.8936 9.91145 18.8753 9.89626 18.8556 9.88075C18.5614 9.65672 18.2045 9.49497 17.8083 9.35875L17.8081 9.35867C17.7322 9.33254 17.6442 9.30506 17.5678 9.28223C17.1106 9.14605 16.6366 9.05655 16.1551 9.00652L16.1479 9.00576L16.1479 9.00571C15.9527 8.98255 15.7735 8.97579 15.5744 8.96828C15.4529 8.96369 15.324 8.95883 15.1796 8.9498L15.1576 8.94842L15.1359 8.94513C15.1285 8.944 15.1111 8.94257 15.0662 8.94449C15.0595 8.94478 15.0489 8.94537 15.0356 8.9461C14.9978 8.9482 14.9389 8.95148 14.891 8.95214C14.8297 8.95445 14.7669 8.95407 14.7179 8.95376C14.7066 8.95369 14.6961 8.95363 14.6864 8.9536C14.637 8.95347 14.6005 8.9541 14.5697 8.95628C14.4281 8.98399 14.2765 9.00006 14.1585 9.01256C14.125 9.0161 14.0942 9.01936 14.0671 9.02252L14.0092 8.52589M16.2352 4.27563L9.57183 10.5932C9.68648 10.5224 9.79508 10.459 9.91606 10.3894C9.95224 10.3696 9.97823 10.3549 10.0029 10.341C10.0315 10.325 10.0583 10.3099 10.0972 10.2889L10.0982 10.2883C10.3078 10.1743 10.5323 10.0622 10.7441 9.96384C11.2513 9.72995 11.7755 9.53352 12.3114 9.37765C12.3445 9.3682 12.3843 9.35701 12.4251 9.34556C12.4467 9.3395 12.4685 9.33337 12.4898 9.32738C12.5167 9.32039 12.5417 9.31382 12.5654 9.30757C12.6281 9.29107 12.6822 9.27685 12.7402 9.26319L12.7402 9.26322L12.7456 9.26187C13.1796 9.15447 13.6217 9.07543 14.0682 9.0224L14.0092 8.52589M16.2352 4.27563C13.5653 4.30104 10.8886 5.06764 8.64517 6.54046C7.01613 7.60637 5.61716 9.04842 4.6605 10.7599C4.09929 11.7605 3.69138 12.848 3.46489 13.9748C3.38642 14.351 3.3344 14.7367 3.31874 15.1278C3.28935 15.7747 3.30376 16.4203 3.34726 17.0591L3.3472 17.0591M16.2352 4.27563L3.3472 17.0591M14.0092 8.52589C13.5434 8.58122 13.0808 8.66384 12.6255 8.77652L14.7262 8.45379C14.6497 8.45335 14.5733 8.45291 14.4977 8.4607C14.3754 8.48648 14.2465 8.50022 14.1223 8.51346C14.084 8.51754 14.0462 8.52157 14.0092 8.52589ZM3.3472 17.0591L3.34787 17.0671M3.3472 17.0591L3.34787 17.0671M3.34787 17.0671L3.34942 17.0854C3.37112 17.3434 3.39721 17.6536 3.48016 17.9593L3.48023 17.9595M3.34787 17.0671L3.48023 17.9595M3.48023 17.9595C3.53697 18.1682 3.73848 18.5801 4.20768 18.6219C4.58843 18.6586 4.95442 18.4041 5.04439 18.0249C5.07552 17.9069 5.08583 17.7963 5.09124 17.7112C5.09445 17.6607 5.09588 17.6269 5.09709 17.5983C5.09856 17.5636 5.09971 17.5366 5.10329 17.4966L5.10452 17.483M3.48023 17.9595L5.10452 17.483M5.10452 17.483L5.105 17.4693M5.10452 17.483L5.105 17.4693M5.105 17.4693C5.12373 16.9294 5.20359 16.3936 5.34791 15.8769L5.34841 15.8751M5.105 17.4693L5.34841 15.8751M5.34841 15.8751C5.4321 15.5709 5.53987 15.2654 5.66176 14.9764L5.66206 14.9757M5.34841 15.8751L5.66206 14.9757M5.66206 14.9757C5.86502 14.4926 6.12413 14.0216 6.41627 13.5846C6.98854 12.7311 7.70708 11.9728 8.51999 11.329C8.64853 11.2274 8.78897 11.1214 8.9256 11.0235L8.92619 11.023M5.66206 14.9757L8.92619 11.023M8.92619 11.023C9.13406 10.8736 9.34955 10.7304 9.57178 10.5932L8.92619 11.023Z" fill="white" stroke="white"/>
<path fill-rule="evenodd" clip-rule="evenodd" d="M18.5975 5.18529C18.6549 5.20264 18.6611 5.18714 18.4978 5.43556C18.2452 5.81982 18.3064 5.45575 18.2758 6.00905C18.3256 6.20187 18.4275 6.04756 18.0351 5.97511C13.493 5.13638 8.41217 7.87046 6.01999 11.5251C5.65241 12.0867 5.65425 12.127 6.0249 11.635C9.00735 8.30174 13.4012 6.73224 17.6099 7.18192C18.1662 7.29454 19.0075 7.46007 19.0741 7.56234C19.114 7.62362 19.0477 7.62808 18.8818 7.57523C17.3766 7.09609 15.503 7.33518 14.5832 8.12381L14.5034 8.19228L14.7962 8.19016C14.9572 8.18899 15.068 8.18248 15.0424 8.17576C14.9678 8.15616 14.9875 8.12106 15.1159 8.04532C16.0775 7.47851 17.8853 7.63014 19.5144 8.41424C19.6499 8.47942 19.7607 8.52761 19.7607 8.52131C19.7607 8.515 19.7422 8.43837 19.7198 8.35097C19.6007 7.8889 19.5975 7.89205 19.9869 8.08919L20.2531 8.22388L20.3263 8.1417C20.4357 8.01893 20.4281 8.00947 20.0468 7.79499C19.3736 7.41634 19.0567 7.16519 18.8423 6.84028C18.5121 6.33996 18.5383 5.73298 18.9073 5.33089L19.0045 5.22498L18.9101 5.21086C18.7466 5.18646 18.5474 5.17014 18.5975 5.18529ZM22.3051 7.15669C22.188 7.26972 20.4245 10.0411 20.4273 10.1077C20.43 10.1718 20.8749 10.3582 20.9153 10.3122C20.9515 10.271 22.5772 7.62897 22.7079 7.39886C22.8446 7.15826 22.5111 6.9577 22.3051 7.15669ZM20.5529 8.77657C20.054 9.58288 19.9594 9.75583 19.9897 9.80538C20.0145 9.84569 20.9319 8.43412 20.9319 8.3557C20.9319 8.22649 20.8084 8.36372 20.5529 8.77657ZM19.5685 10.4924C19.4981 10.5051 19.45 10.5369 19.4025 10.6022C19.3223 10.7119 19.3263 10.7207 19.4397 10.6809C19.7433 10.5745 20.379 10.7988 20.7061 11.1278L20.8461 11.2686L20.8632 11.161C20.9192 10.8082 20.1156 10.3932 19.5685 10.4924Z" fill="#C4DCEC"/>
<path fill-rule="evenodd" clip-rule="evenodd" d="M19.045 12.2265C15.5202 17.5989 12.1977 22.6362 11.6536 23.546C11.3832 23.9981 11.865 24.4814 11.9829 24.3305C12.6801 23.8701 16.7942 17.5437 19.1957 13.9347C20.6657 11.7256 20.4702 11.795 19.8264 11.6034C19.6824 11.529 19.5166 11.5329 19.028 12.2777" fill="#FCD4B4"/>
<path fill-rule="evenodd" clip-rule="evenodd" d="M15.5381 5.04089C9.67751 5.39254 4.92594 9.35386 4.11468 14.5644C3.98199 15.4165 4.05521 17.5608 4.22645 17.8367C4.27239 17.9108 4.28272 17.8433 4.30849 17.3015C4.52021 12.8561 8.87287 8.78866 14.0198 8.22668C14.435 8.18133 14.4374 8.18071 14.5654 8.07941C15.5604 7.29252 17.3538 7.07036 18.8605 7.54745C19.0269 7.60019 19.0935 7.59575 19.0535 7.53459C18.9866 7.43254 18.0916 7.18228 17.5335 7.0699C13.3551 6.51415 8.86598 8.37487 5.92555 11.6454C5.56664 12.1197 5.60786 12.0106 6.0216 11.3909C8.40343 7.8242 13.3846 5.11059 17.8882 5.93783C18.2818 6.01013 18.3322 6.18964 18.2822 5.99722C18.315 5.61638 18.2216 5.79611 18.4753 5.41231C18.6367 5.16805 18.6347 5.17256 18.5828 5.17256C18.5596 5.17256 18.5405 5.16203 18.5405 5.14917C18.5405 5.04964 16.5743 4.97878 15.5381 5.04089ZM18.8515 5.34657C18.4187 5.91383 18.5109 6.56241 19.1069 7.14047C19.3225 7.34964 19.5043 7.47303 20.0293 7.76675C20.4117 7.98078 20.4194 7.99022 20.3096 8.11272L20.2362 8.19474L19.9692 8.06033C19.5785 7.8636 19.5817 7.86046 19.7011 8.32155C19.7237 8.40876 19.7422 8.48524 19.7422 8.49153C19.7422 8.49782 19.6311 8.44973 19.4952 8.38469C17.8608 7.60224 16.0473 7.45094 15.0826 8.01655C14.8679 8.14248 14.9065 8.15499 15.5763 8.1764C17.4658 8.2368 19.2945 8.92451 19.7005 9.7272L19.7732 9.87111L19.7184 9.99499C19.6544 10.1399 19.3025 10.66 19.1974 10.7652C19.0521 10.9106 19.0133 11.1064 19.0879 11.318C19.1099 11.3805 19.128 11.4404 19.128 11.4511C19.128 11.4922 17.3895 14.131 13.5738 19.8815C12.3061 21.792 11.2257 23.4332 11.1728 23.5287C10.878 24.0614 11.2481 24.6823 11.8605 24.6823C12.2948 24.6823 12.3048 24.6719 13.2577 23.2081C14.7549 20.9079 20.4802 12.2877 20.546 12.2345C20.5677 12.2169 20.6434 12.1895 20.7141 12.1736C21.0624 12.0956 21.2673 11.8433 21.2693 11.4901C21.2705 11.2983 21.2474 11.3443 21.6894 10.65C22.0145 10.1394 22.0266 10.1286 22.3026 10.1073C22.9902 10.0543 23.2561 9.43964 22.9146 8.69304L22.8322 8.51287L23.0147 8.24549C23.115 8.09843 23.2039 7.97736 23.2121 7.9764C23.2204 7.97551 23.3136 7.97229 23.4193 7.96928C24.1538 7.94849 23.9585 6.98903 23.1069 6.43381C22.2534 5.87744 21.3769 6.13292 21.7019 6.8434C21.7403 6.92733 21.7717 7.00613 21.7717 7.01851C21.7717 7.06789 21.4753 7.49718 21.4412 7.49718C21.3481 7.49718 19.776 6.69627 19.6733 6.5964C19.2447 6.18032 19.5412 5.62996 20.1962 5.62606L20.3697 5.62504L20.3081 5.5736C20.2072 5.48946 19.4493 5.28029 19.085 5.23611L18.9485 5.21955L18.8515 5.34657ZM22.6168 7.09874C22.7581 7.18616 22.7742 7.23951 22.6988 7.37146C22.5677 7.60108 20.9369 10.2375 20.9005 10.2786C20.86 10.3245 20.4136 10.1385 20.411 10.0745C20.4082 10.0081 22.1773 7.24259 22.2948 7.1298C22.4011 7.0276 22.4882 7.01919 22.6168 7.09874ZM20.9172 8.32627C20.9172 8.40452 19.9969 9.81311 19.972 9.77289C19.9492 9.73595 19.9732 9.68103 20.1255 9.42096C20.6497 8.52614 20.9172 8.15629 20.9172 8.32627ZM20.1929 10.5193C20.5893 10.6538 20.8805 10.9232 20.8482 11.1257L20.831 11.233L20.6906 11.0925C20.3625 10.7642 19.7248 10.5404 19.4202 10.6466C19.3065 10.6863 19.3024 10.6775 19.3828 10.568C19.4894 10.4228 19.8453 10.4014 20.1929 10.5193ZM19.7991 11.6004C19.8507 11.627 20.4231 12.103 20.2649 11.9957C20.1866 12.3356 16.1744 18.0028 15.4244 19.2034C15.0178 19.7923 12.3029 24.1115 11.856 24.2006C10.4839 24.4743 15.0473 18.4576 19.1223 12.2432C19.6097 11.5 19.5413 11.5321 19.7991 11.6004Z" fill="#040404"/>
</svg>
